<svg width="1757" height="4096" viewBox="0 0 1757 4096" fill="none" xmlns="http://www.w3.org/2000/svg">
<g clip-path="url(#clip0_1092_314)">
<rect width="1757" height="4096" fill="white"/>
<g opacity="0.8">
<g style="mix-blend-mode:multiply">
<path d="M1579.15 1461.79C1571.93 1464.82 1563.6 1463.36 1557.85 1458.06L1220.76 1147.32C1214.8 1141.82 1212.75 1133.27 1215.57 1125.66L1357.69 742.622C1359.46 737.851 1362.99 733.934 1367.54 731.669L1829.65 501.994C1840.27 496.717 1853.12 501.782 1857.28 512.884L2022.76 954.326C2024.52 959.022 2024.45 964.209 2022.57 968.858L1875.89 1330.81C1873.89 1335.74 1870.01 1339.68 1865.1 1341.74L1579.15 1461.79Z" fill="#FFF5F5"/>
<path d="M1526.39 1357.95L1555.3 1297.7L1587.15 1330.13L1526.39 1357.95Z" fill="#313131"/>
<path d="M1541.51 1345.23L1544.89 1339.17L1539.86 1334.16L1546.04 1337.66L1550.97 1332.78L1547.59 1338.84L1552.62 1343.85L1546.44 1340.35L1541.51 1345.23Z" fill="white"/>
<path d="M1581.95 1190.21L1608.16 1182.7L1606.9 1201.21L1581.95 1190.21Z" fill="#FF5C5C"/>
<path d="M1589.99 1191.27L1592.75 1190.66L1592.92 1187.77L1593.52 1190.6L1596.35 1190.79L1593.59 1191.4L1593.42 1194.29L1592.81 1191.46L1589.99 1191.27Z" fill="white"/>
<path d="M1556.99 1138.25L1525.78 1103.43L1555.28 1091.52L1556.99 1138.25Z" fill="#FFA3A3"/>
<path d="M1553.27 1110.3L1550.26 1106.49L1545.67 1108.4L1549.59 1105.34L1547.76 1100.85L1550.77 1104.66L1555.36 1102.75L1551.44 1105.81L1553.27 1110.3Z" fill="white"/>
</g>
<g style="mix-blend-mode:multiply">
<path d="M436.896 1434.95C440.838 1437.56 443.724 1441.49 445.042 1446.04L530.72 1741.26C533.139 1749.59 529.907 1758.54 522.72 1763.4L154.713 2012.4C147.215 2017.47 137.242 2016.88 130.402 2010.94L-277.19 1657.48C-285.01 1650.7 -286.364 1639.07 -280.311 1630.67L35.9821 1191.89C42.2658 1183.18 54.3147 1180.98 63.2675 1186.92L436.896 1434.95Z" fill="#FFF5F5"/>
<path d="M165.27 2065.55L136.96 2026.79L168.306 2017.65L165.27 2065.55Z" fill="#313131"/>
<path d="M162.358 2051.66L159.672 2047.47L154.789 2048.95L159.104 2046.22L157.691 2041.45L160.378 2045.64L165.26 2044.16L160.945 2046.88L162.358 2051.66Z" fill="white"/>
<path d="M208.563 1808.43L140.199 1789.13L168.357 1749.87L208.563 1808.43Z" fill="#FF5C5C"/>
<path d="M162.071 1787.67L155.111 1785.24L150.776 1791.42L153.315 1784.31L147.308 1780.03L154.267 1782.47L158.602 1776.29L156.063 1783.4L162.071 1787.67Z" fill="white"/>
<path d="M86.8476 1880.76L112.997 1849.17L127.156 1873.2L86.8476 1880.76Z" fill="#FFA3A3"/>
<path d="M110.608 1873.91L113.518 1870.8L111.266 1867.07L114.427 1870.07L118.086 1867.9L115.177 1871L117.428 1874.73L114.267 1871.73L110.608 1873.91Z" fill="white"/>
</g>
<g style="mix-blend-mode:multiply">
<path d="M1821.05 1993.93C1827.83 1994.84 1833.67 1999.15 1836.54 2005.36L2057.88 2484.12C2062.31 2493.71 2058.52 2505.1 2049.23 2510.11L1649.71 2725.79C1643.68 2729.05 1636.39 2728.99 1630.41 2725.63L1306.58 2543.7C1301.34 2540.76 1297.71 2535.63 1296.67 2529.71L1247.24 2247.24C1246.18 2241.18 1247.96 2234.97 1252.08 2230.4L1496.51 1959.21C1500.93 1954.3 1507.48 1951.9 1514.02 1952.77L1821.05 1993.93Z" fill="#FFF5F5"/>
<path d="M1542.11 2639.21L1590.59 2593.22L1608.79 2634.87L1542.11 2639.21Z" fill="#313131"/>
<path d="M1560.77 2632.71L1566.09 2628.26L1563.17 2621.78L1567.7 2627.25L1574.05 2624.45L1568.73 2628.91L1571.64 2635.38L1567.12 2629.91L1560.77 2632.71Z" fill="white"/>
<path d="M1591.02 2414.54L1593.34 2369.41L1621.67 2381.33L1591.02 2414.54Z" fill="#FF5C5C"/>
<path d="M1597.34 2382.77L1597.86 2378.11L1593.42 2376.3L1598.18 2376.87L1599.99 2372.54L1599.46 2377.2L1603.91 2379.01L1599.14 2378.44L1597.34 2382.77Z" fill="white"/>
<path d="M1535.26 2475.7L1552.21 2450.11L1564.66 2466.87L1535.26 2475.7Z" fill="#FFA3A3"/>
<path d="M1552.4 2468.71L1554.32 2466.17L1552.35 2463.57L1554.94 2465.55L1557.49 2463.64L1555.57 2466.19L1557.54 2468.79L1554.95 2466.8L1552.4 2468.71Z" fill="white"/>
</g>
<g style="mix-blend-mode:multiply">
<path d="M180.675 3638.47C175.118 3644.32 166.589 3646.26 159.048 3643.38L-540.798 3376.63C-552.486 3372.18 -557.263 3358.21 -550.75 3347.53L-201.645 2775.16C-197.352 2768.13 -189.182 2764.44 -181.067 2765.89L202.928 2834.21C209.024 2835.29 214.274 2839.14 217.145 2844.62L465.368 3318.96C469.334 3326.54 468.042 3335.8 462.152 3342L180.675 3638.47Z" fill="#FFF5F5"/>
</g>
<g style="mix-blend-mode:multiply">
<path d="M214.302 3793.1L182.488 3770.62L204.226 3755.47L214.302 3793.1Z" fill="#313131"/>
<path d="M205.266 3786.26L204.57 3782.28L200.451 3781.86L204.534 3781.17L204.973 3777.15L205.67 3781.13L209.788 3781.55L205.706 3782.24L205.266 3786.26Z" fill="white"/>
<path d="M170.518 3672.11L101.713 3633.45L142.365 3598.38L170.518 3672.11Z" fill="#FF5C5C"/>
<path d="M125.717 3637.57L118.835 3633.13L112.541 3638.67L117.138 3631.65L111.764 3625.47L118.646 3629.92L124.94 3624.37L120.343 3631.39L125.717 3637.57Z" fill="white"/>
<path d="M202.008 3445.86L148.991 3467.54L147.392 3428.61L202.008 3445.86Z" fill="#FFA3A3"/>
<path d="M168.233 3438.65L162.603 3440.56L162.917 3446.63L161.002 3440.86L155.063 3441.12L160.693 3439.21L160.379 3433.14L162.295 3438.91L168.233 3438.65Z" fill="white"/>
</g>
<path d="M1769.14 3625.14C1775.92 3626.05 1781.76 3630.36 1784.63 3636.57L2005.97 4115.33C2010.4 4124.92 2006.61 4136.3 1997.32 4141.32L1599.67 4355.98C1592.65 4359.77 1584.05 4359.03 1577.79 4354.09L1304.21 4138.39C1299.4 4134.6 1296.59 4128.81 1296.59 4122.69L1296.59 3869.96C1296.59 3866.6 1297.44 3863.29 1299.06 3860.33L1445.06 3594.59C1449.04 3587.35 1457.06 3583.3 1465.24 3584.4L1769.14 3625.14Z" fill="#FFF5F5"/>
</g>
</g>
<defs>
<clipPath id="clip0_1092_314">
<rect width="1757" height="4096" fill="white"/>
</clipPath>
</defs>
</svg>
