<svg width="814" height="777" viewBox="0 0 814 777" fill="none" xmlns="http://www.w3.org/2000/svg">
<path d="M575.047 41.8036C581.827 42.7125 587.673 47.024 590.543 53.2335L811.882 531.993C816.315 541.583 812.525 552.967 803.229 557.985L403.71 773.66C397.676 776.918 390.393 776.857 384.414 773.498L60.578 591.572C55.3443 588.632 51.7081 583.496 50.6732 577.583L1.23652 295.107C0.176132 289.048 1.96275 282.838 6.08087 278.269L250.509 7.07664C254.927 2.17395 261.481 -0.232971 268.022 0.644002L575.047 41.8036Z" fill="#FFF5F5"/>
<path d="M114.888 357.097L166.548 314.709L181.711 357.56L114.888 357.097Z" fill="#313131"/>
<path d="M133.97 351.96L139.591 347.897L137.151 341.227L141.273 347.01L147.802 344.672L142.182 348.735L144.621 355.405L140.499 349.621L133.97 351.96Z" fill="white"/>
<path d="M220.203 461.119L184.748 433.101L210.872 416.904L220.203 461.119Z" fill="#FF5C5C"/>
<path d="M197.955 437.578L194.46 434.45L190.405 437.024L193.631 433.467L191.145 429.49L194.64 432.618L198.695 430.044L195.468 433.601L197.955 437.578Z" fill="white"/>
<path d="M103.418 480.361L139.912 483.572L129.416 506.174L103.418 480.361Z" fill="#FFA3A3"/>
<path d="M120.507 494.36L124.267 494.925L125.87 491.376L125.266 495.223L128.721 496.811L124.96 496.247L123.358 499.795L123.961 495.949L120.507 494.36Z" fill="white"/>
</svg>
