<svg width="1757" height="4096" viewBox="0 0 1757 4096" fill="none" xmlns="http://www.w3.org/2000/svg">
<g clip-path="url(#clip0_1092_314)">
<rect width="1757" height="4096" fill="white"/>
<g style="mix-blend-mode:multiply">
<path d="M1563.15 1440.79C1555.93 1443.82 1547.6 1442.36 1541.85 1437.06L1204.76 1126.32C1198.8 1120.82 1196.75 1112.27 1199.57 1104.66L1341.69 721.622C1343.46 716.851 1346.99 712.934 1351.54 710.669L1813.65 480.994C1824.27 475.717 1837.12 480.782 1841.28 491.884L2006.76 933.326C2008.52 938.022 2008.45 943.209 2006.57 947.858L1859.89 1309.81C1857.89 1314.74 1854.01 1318.68 1849.1 1320.74L1563.15 1440.79Z" fill="#FFF5F5"/>
<path d="M1411.71 1299.84L1410.19 1233.04L1453.28 1247.52L1411.71 1299.84Z" fill="#313131"/>
<path d="M1419.43 1281.65L1419.7 1274.72L1412.94 1272.53L1420.04 1272.85L1422.22 1266.27L1421.96 1273.2L1428.71 1275.39L1421.62 1275.07L1419.43 1281.65Z" fill="white"/>
<path d="M1338.94 1192.34L1365.16 1184.83L1363.9 1203.34L1338.94 1192.34Z" fill="#FF5C5C"/>
<path d="M1346.98 1193.4L1349.75 1192.79L1349.92 1189.9L1350.52 1192.73L1353.35 1192.91L1350.58 1193.53L1350.42 1196.42L1349.81 1193.58L1346.98 1193.4Z" fill="white"/>
<path d="M1430.21 1175.07L1399.01 1140.25L1428.5 1128.34L1430.21 1175.07Z" fill="#FFA3A3"/>
<path d="M1426.49 1147.12L1423.48 1143.32L1418.9 1145.22L1422.81 1142.17L1420.98 1137.67L1423.99 1141.48L1428.58 1139.57L1424.66 1142.63L1426.49 1147.12Z" fill="white"/>
</g>
<g style="mix-blend-mode:multiply">
<path d="M420.896 1413.95C424.838 1416.56 427.724 1420.49 429.042 1425.04L514.72 1720.26C517.139 1728.59 513.907 1737.54 506.72 1742.4L138.713 1991.4C131.215 1996.47 121.242 1995.88 114.402 1989.94L-293.19 1636.48C-301.01 1629.7 -302.364 1618.07 -296.311 1609.67L19.9821 1170.89C26.2658 1162.18 38.3147 1159.98 47.2675 1165.92L420.896 1413.95Z" fill="#FFF5F5"/>
<path d="M262.448 2054.97L234.138 2016.21L265.484 2007.07L262.448 2054.97Z" fill="#313131"/>
<path d="M259.536 2041.08L256.85 2036.88L251.967 2038.36L256.282 2035.64L254.869 2030.86L257.555 2035.06L262.438 2033.58L258.123 2036.3L259.536 2041.08Z" fill="white"/>
<path d="M405.58 1783.15L337.216 1763.86L365.374 1724.59L405.58 1783.15Z" fill="#FF5C5C"/>
<path d="M359.088 1762.39L352.128 1759.96L347.793 1766.14L350.333 1759.03L344.325 1754.76L351.284 1757.19L355.619 1751.01L353.08 1758.12L359.088 1762.39Z" fill="white"/>
<path d="M246.023 1859.76L272.172 1828.17L286.332 1852.2L246.023 1859.76Z" fill="#FFA3A3"/>
<path d="M269.783 1852.91L272.693 1849.8L270.441 1846.07L273.602 1849.07L277.261 1846.9L274.352 1850L276.604 1853.73L273.442 1850.73L269.783 1852.91Z" fill="white"/>
</g>
<g style="mix-blend-mode:multiply">
<path d="M1805.05 1972.93C1811.83 1973.84 1817.67 1978.15 1820.54 1984.36L2041.88 2463.12C2046.31 2472.71 2042.52 2484.1 2033.23 2489.11L1633.71 2704.79C1627.68 2708.05 1620.39 2707.99 1614.41 2704.63L1290.58 2522.7C1285.34 2519.76 1281.71 2514.63 1280.67 2508.71L1231.24 2226.24C1230.18 2220.18 1231.96 2213.97 1236.08 2209.4L1480.51 1938.21C1484.93 1933.3 1491.48 1930.9 1498.02 1931.77L1805.05 1972.93Z" fill="#FFF5F5"/>
<path d="M1439.9 2544.97L1491.55 2502.58L1506.72 2545.43L1439.9 2544.97Z" fill="#313131"/>
<path d="M1458.98 2539.83L1464.6 2535.77L1462.16 2529.1L1466.28 2534.88L1472.81 2532.54L1467.19 2536.61L1469.63 2543.28L1465.51 2537.49L1458.98 2539.83Z" fill="white"/>
<path d="M1494.21 2423.12L1458.75 2395.1L1484.88 2378.9L1494.21 2423.12Z" fill="#FF5C5C"/>
<path d="M1471.96 2399.58L1468.47 2396.45L1464.41 2399.02L1467.64 2395.47L1465.15 2391.49L1468.65 2394.62L1472.7 2392.04L1469.47 2395.6L1471.96 2399.58Z" fill="white"/>
<path d="M1377.42 2442.36L1413.92 2445.57L1403.42 2468.17L1377.42 2442.36Z" fill="#FFA3A3"/>
<path d="M1394.51 2456.36L1398.27 2456.92L1399.88 2453.38L1399.27 2457.22L1402.73 2458.81L1398.97 2458.25L1397.36 2461.8L1397.97 2457.95L1394.51 2456.36Z" fill="white"/>
</g>
<g style="mix-blend-mode:multiply">
<path d="M164.675 3617.47C159.118 3623.32 150.588 3625.26 143.047 3622.38L-556.798 3355.63C-568.486 3351.18 -573.263 3337.21 -566.75 3326.53L-217.645 2754.16C-213.352 2747.13 -205.182 2743.44 -197.067 2744.89L186.928 2813.21C193.024 2814.29 198.274 2818.14 201.145 2823.62L449.368 3297.96C453.334 3305.54 452.042 3314.8 446.152 3321L164.675 3617.47Z" fill="#FFF5F5"/>
</g>
<g style="mix-blend-mode:multiply">
<path d="M348.288 3733.33L339.242 3695.44L365.571 3698.42L348.288 3733.33Z" fill="#313131"/>
<path d="M350.461 3722.01L349.764 3718.03L345.646 3717.61L349.729 3716.92L350.168 3712.9L350.864 3716.89L354.983 3717.31L350.9 3717.99L350.461 3722.01Z" fill="white"/>
<path d="M277.585 3651.12L208.781 3612.45L249.433 3577.38L277.585 3651.12Z" fill="#FF5C5C"/>
<path d="M232.785 3616.57L225.903 3612.13L219.609 3617.67L224.206 3610.65L218.831 3604.47L225.713 3608.92L232.007 3603.37L227.41 3610.39L232.785 3616.57Z" fill="white"/>
<path d="M341.703 3430.22L288.686 3451.89L287.087 3412.96L341.703 3430.22Z" fill="#FFA3A3"/>
<path d="M307.929 3423L302.299 3424.91L302.613 3430.99L300.697 3425.21L294.758 3425.48L300.388 3423.57L300.074 3417.49L301.99 3423.27L307.929 3423Z" fill="white"/>
</g>
<path d="M1817.14 3610.14C1823.92 3611.05 1829.76 3615.36 1832.63 3621.57L2053.97 4100.33C2058.4 4109.92 2054.61 4121.3 2045.32 4126.32L1647.67 4340.98C1640.65 4344.77 1632.05 4344.03 1625.79 4339.09L1352.21 4123.39C1347.4 4119.6 1344.59 4113.81 1344.59 4107.69L1344.59 3854.96C1344.59 3851.6 1345.44 3848.29 1347.06 3845.33L1493.06 3579.59C1497.04 3572.35 1505.06 3568.3 1513.24 3569.4L1817.14 3610.14Z" fill="#FFF5F5"/>
</g>
<defs>
<clipPath id="clip0_1092_314">
<rect width="1757" height="4096" fill="white"/>
</clipPath>
</defs>
</svg>
