<svg width="819" height="836" viewBox="0 0 819 836" fill="none" xmlns="http://www.w3.org/2000/svg">
<path d="M765.195 164.247C772.174 166.955 777.057 173.334 777.849 180.779L818.508 563.294C819.289 570.645 815.951 577.829 809.828 581.972L439.714 832.398C432.215 837.471 422.243 836.875 415.403 830.943L7.80997 477.476C-0.00972509 470.695 -1.36349 459.068 4.68906 450.671L323.193 8.82477C328.518 1.43762 338.161 -1.41971 346.651 1.87391L765.195 164.247Z" fill="#FFF5F5"/>
<path d="M769.696 495.749L801.551 531.656L771.213 543.726L769.696 495.749Z" fill="#313131"/>
<path d="M773.911 509.303L776.983 513.225L781.703 511.289L777.666 514.408L779.525 519.03L776.453 515.108L771.733 517.044L775.771 513.925L773.911 509.303Z" fill="white"/>
<path d="M706.58 526.281L638.217 506.985L666.375 467.719L706.58 526.281Z" fill="#FF5C5C"/>
<path d="M660.088 505.52L653.129 503.087L648.794 509.269L651.333 502.159L645.326 497.885L652.285 500.318L656.62 494.137L654.081 501.247L660.088 505.52Z" fill="white"/>
<path d="M674.023 635.761L700.172 604.168L714.331 628.204L674.023 635.761Z" fill="#FFA3A3"/>
<path d="M697.783 628.907L700.692 625.801L698.44 622.069L701.602 625.069L705.261 622.895L702.351 626.002L704.603 629.734L701.442 626.733L697.783 628.907Z" fill="white"/>
</svg>
