<svg width="811" height="965" viewBox="0 0 811 965" fill="none" xmlns="http://www.w3.org/2000/svg">
<path d="M365.146 962.663C357.928 965.693 349.605 964.234 343.848 958.927L6.76319 648.193C0.798057 642.694 -1.25424 634.137 1.56804 626.53L143.693 243.493C145.463 238.722 148.986 234.805 153.542 232.54L615.651 2.86501C626.268 -2.41173 639.119 2.65314 643.28 13.7546L808.762 455.197C810.523 459.893 810.455 465.08 808.571 469.729L661.894 831.68C659.894 836.615 656.009 840.549 651.1 842.61L365.146 962.663Z" fill="#FFF5F5"/>
<path d="M213.712 821.715L212.191 754.908L255.277 769.391L213.712 821.715Z" fill="#313131"/>
<path d="M221.433 803.524L221.7 796.594L214.944 794.402L222.039 794.723L224.223 788.14L223.957 795.071L230.713 797.263L223.617 796.942L221.433 803.524Z" fill="white"/>
<path d="M140.945 714.209L167.163 706.698L165.901 725.206L140.945 714.209Z" fill="#FF5C5C"/>
<path d="M148.986 715.274L151.749 714.663L151.916 711.769L152.523 714.603L155.348 714.785L152.584 715.396L152.418 718.29L151.81 715.456L148.986 715.274Z" fill="white"/>
<path d="M232.209 696.94L201.006 662.12L230.497 650.216L232.209 696.94Z" fill="#FFA3A3"/>
<path d="M228.495 668.993L225.484 665.188L220.896 667.096L224.813 664.039L222.979 659.546L225.991 663.351L230.579 661.442L226.662 664.5L228.495 668.993Z" fill="white"/>
</svg>
