<svg width="623" height="1025" viewBox="0 0 623 1025" fill="none" xmlns="http://www.w3.org/2000/svg">
<g style="mix-blend-mode:multiply">
<path d="M420.896 342.948C424.838 345.564 427.724 349.493 429.042 354.037L514.72 649.259C517.139 657.593 513.907 666.535 506.72 671.398L138.713 920.398C131.215 925.472 121.242 924.875 114.402 918.943L-293.19 565.477C-301.01 558.695 -302.364 547.068 -296.311 538.672L19.9821 99.8922C26.2658 91.1751 38.3147 88.9815 47.2675 94.9245L420.896 342.948Z" fill="#FFF5F5"/>
<path d="M262.448 983.971L234.138 945.207L265.484 936.066L262.448 983.971Z" fill="#313131"/>
<path d="M259.536 970.078L256.85 965.883L251.967 967.363L256.282 964.64L254.869 959.863L257.555 964.059L262.438 962.579L258.123 965.301L259.536 970.078Z" fill="white"/>
<path d="M405.58 712.153L337.216 692.857L365.374 653.591L405.58 712.153Z" fill="#FF5C5C"/>
<path d="M359.088 691.392L352.128 688.959L347.793 695.141L350.333 688.031L344.325 683.757L351.284 686.19L355.619 680.009L353.08 687.119L359.088 691.392Z" fill="white"/>
<path d="M246.023 788.761L272.172 757.168L286.332 781.204L246.023 788.761Z" fill="#FFA3A3"/>
<path d="M269.783 781.908L272.693 778.801L270.441 775.069L273.602 778.07L277.261 775.895L274.352 779.002L276.604 782.734L273.442 779.733L269.783 781.908Z" fill="white"/>
</g>
</svg>
