<svg width="1022" height="880" viewBox="0 0 1022 880" fill="none" xmlns="http://www.w3.org/2000/svg">
<path d="M734.675 873.336C729.119 879.189 720.589 881.128 713.048 878.254L13.2023 611.501C1.51453 607.046 -3.26213 593.077 3.25102 582.398L352.356 10.0347C356.648 2.99751 364.818 -0.685505 372.934 0.758352L756.928 69.0762C763.024 70.1608 768.274 74.0077 771.145 79.4938L1019.37 553.828C1023.33 561.407 1022.04 570.669 1016.15 576.872L734.675 873.336Z" fill="#FFF5F5"/>
<path d="M826.288 748.33L817.241 710.441L843.571 713.419L826.288 748.33Z" fill="#313131"/>
<path d="M828.461 737.013L827.764 733.03L823.645 732.608L827.728 731.922L828.167 727.903L828.864 731.886L832.983 732.308L828.9 732.993L828.461 737.013Z" fill="white"/>
<path d="M938.585 682.115L869.781 643.447L910.433 608.381L938.585 682.115Z" fill="#FF5C5C"/>
<path d="M893.785 647.569L886.903 643.126L880.609 648.672L885.206 641.655L879.832 635.473L886.714 639.915L893.008 634.37L888.411 641.387L893.785 647.569Z" fill="white"/>
<path d="M911.704 513.863L858.687 535.537L857.088 496.61L911.704 513.863Z" fill="#FFA3A3"/>
<path d="M877.929 506.647L872.299 508.555L872.613 514.635L870.698 508.857L864.759 509.123L870.389 507.215L870.075 501.135L871.991 506.914L877.929 506.647Z" fill="white"/>
</svg>
