<svg width="34" height="31" viewBox="0 0 34 31" fill="none" xmlns="http://www.w3.org/2000/svg">
<path fill-rule="evenodd" clip-rule="evenodd" d="M32.0103 14.0233L33.2278 8.69768H28.6744V14.0233H32.0103ZM27.6744 14.0233V8.69768H19.186V14.0233H27.6744ZM27.6744 7.69768H19.186V6.32558H18.186V7.69768H14.2326V8.69768H18.186V14.0233H14.2326V15.0233L18.186 15.0233H19.186H27.6744H28.6744L31.7817 15.0233L31.1738 17.6828C31.0272 18.324 30.4538 18.7791 29.7923 18.7791H12.4886L12.875 20.657H28.7191C29.6282 20.657 30.302 21.4962 30.1005 22.3776L29.7749 23.8022C30.8781 24.3346 31.6389 25.459 31.6389 26.7602C31.6389 28.5752 30.159 30.0465 28.3333 30.0465C26.5077 30.0465 25.0278 28.5752 25.0278 26.7602C25.0278 25.8404 25.4083 25.0093 26.0208 24.4128H13.6458C14.2583 25.0093 14.6389 25.8404 14.6389 26.7602C14.6389 28.5752 13.1589 30.0465 11.3333 30.0465C9.50773 30.0465 8.02778 28.5752 8.02778 26.7602C8.02778 25.5408 8.69627 24.4773 9.68829 23.9102L5.54171 3.75581H1.41667C0.634254 3.75581 0 3.12525 0 2.34738V1.40843C0 0.630566 0.634254 0 1.41667 0H7.46873C8.1417 0 8.72183 0.470709 8.85665 1.12616L9.3977 3.75581H32.5828C33.4918 3.75581 34.1656 4.59506 33.9642 5.47639L33.4564 7.69768H28.6744V6.32558H27.6744V7.69768Z" fill="white"/>
</svg>
