<svg width="139" height="124" viewBox="0 0 139 124" fill="none" xmlns="http://www.w3.org/2000/svg">
<path d="M7.90039 108.311C7.90039 106.675 7.10449 105.857 5.5127 105.857C4.33105 105.857 3.67188 106.169 3.53516 106.794C3.49609 106.975 3.47656 107.166 3.47656 107.366V114.485C3.47656 114.773 3.49121 114.995 3.52051 115.151C3.5498 115.308 3.61328 115.427 3.71094 115.51C3.80859 115.593 3.9502 115.652 4.13574 115.686C4.32617 115.715 4.58008 115.747 4.89746 115.781L5.29297 115.825V116.433H0.722656V115.825L0.97168 115.789C1.18652 115.759 1.35986 115.73 1.4917 115.701C1.62354 115.667 1.72607 115.605 1.79932 115.518C1.92627 115.371 1.98975 115.027 1.98975 114.485V107.073C1.98975 106.594 1.93359 106.299 1.82129 106.187C1.71387 106.074 1.57471 105.996 1.40381 105.952C1.23779 105.908 1.01074 105.874 0.722656 105.85V105.22H2.62695C2.90527 105.22 3.27393 105.2 3.73291 105.161C4.62158 105.093 5.31494 105.059 5.81299 105.059C6.31592 105.059 6.82129 105.142 7.3291 105.308C7.8418 105.474 8.26416 105.701 8.59619 105.989C9.24072 106.555 9.56299 107.302 9.56299 108.23C9.56299 108.928 9.35303 109.578 8.93311 110.178C8.45947 110.867 7.76123 111.362 6.83838 111.665L11.8262 118.506L11.2769 118.923L4.86816 111.738L5.19043 111.086H5.74707C6.32812 111.086 6.81885 110.859 7.21924 110.405C7.67334 109.878 7.90039 109.18 7.90039 108.311ZM16.0777 111.958C16.0777 111.577 16.1144 111.199 16.1876 110.823C16.2657 110.447 16.3805 110.09 16.5318 109.753C16.6881 109.417 16.881 109.106 17.1104 108.823C17.3399 108.54 17.6061 108.296 17.9088 108.091C18.5582 107.651 19.3126 107.432 20.172 107.432C21.4708 107.432 22.4962 107.896 23.2481 108.823C23.9366 109.673 24.2809 110.72 24.2809 111.965C24.2809 113.22 23.9366 114.287 23.2481 115.166C22.4962 116.123 21.4708 116.602 20.172 116.602C18.878 116.602 17.8526 116.116 17.0958 115.144C16.4171 114.265 16.0777 113.203 16.0777 111.958ZM19.315 115.627C19.5641 115.735 19.8521 115.789 20.1793 115.789C20.5113 115.789 20.8019 115.737 21.0509 115.635C21.2999 115.527 21.5147 115.381 21.6954 115.195C21.8761 115.01 22.025 114.795 22.1422 114.551C22.2643 114.302 22.3619 114.036 22.4352 113.752C22.567 113.245 22.6329 112.744 22.6329 112.251C22.6329 111.753 22.6183 111.353 22.589 111.05C22.5597 110.742 22.5084 110.452 22.4352 110.178C22.3619 109.9 22.2643 109.641 22.1422 109.402C22.025 109.163 21.8761 108.955 21.6954 108.779C21.3048 108.408 20.8019 108.223 20.1866 108.223C19.0294 108.223 18.2823 108.887 17.9454 110.215C17.8136 110.718 17.7477 111.301 17.7477 111.965C17.7477 113.958 18.2701 115.178 19.315 115.627ZM35.0437 109.878C35.2292 109.59 35.322 109.331 35.322 109.102C35.322 108.867 35.1828 108.662 34.9045 108.486C34.6311 108.306 34.3039 108.215 33.923 108.215C33.5422 108.215 33.2492 108.25 33.0441 108.318C32.8391 108.386 32.6657 108.481 32.5241 108.604C32.2458 108.843 32.1066 109.163 32.1066 109.563C32.1066 110.046 32.5119 110.493 33.3225 110.903C33.5568 111.025 33.7546 111.123 33.9157 111.196C35.1511 111.753 35.9348 112.166 36.2668 112.434C36.5988 112.698 36.8381 112.952 36.9846 113.196C37.1359 113.44 37.2116 113.743 37.2116 114.104C37.2116 114.465 37.1115 114.805 36.9113 115.122C36.7111 115.439 36.445 115.708 36.113 115.928C35.4392 116.377 34.6286 116.602 33.6813 116.602C32.7976 116.602 32.0261 116.421 31.3669 116.06C30.6442 115.674 30.2927 115.183 30.3122 114.587C30.322 114.236 30.4733 113.921 30.7663 113.643C31.03 113.394 31.3449 113.228 31.7111 113.145L32.0334 113.518C31.8479 113.748 31.7551 114.055 31.7551 114.441C31.7551 114.778 31.9309 115.078 32.2824 115.342C32.673 115.64 33.1711 115.789 33.7766 115.789C34.3869 115.789 34.8654 115.652 35.2121 115.378C35.5637 115.105 35.7395 114.739 35.7395 114.28C35.7395 113.743 35.2902 113.269 34.3918 112.859C34.1232 112.737 33.9035 112.642 33.7326 112.573C33.5617 112.5 33.4543 112.454 33.4104 112.434C33.3664 112.415 33.2443 112.361 33.0441 112.273C32.8488 112.18 32.5925 112.043 32.2751 111.863C31.9626 111.682 31.6867 111.484 31.4475 111.27C30.9348 110.815 30.6784 110.303 30.6784 109.731C30.6784 109.023 30.9909 108.457 31.6159 108.032C32.2116 107.632 33.0026 107.432 33.989 107.432C34.7507 107.432 35.3781 107.583 35.8713 107.886C36.3693 108.188 36.6184 108.564 36.6184 109.014C36.6184 109.297 36.4841 109.556 36.2155 109.79C35.9812 109.99 35.7297 110.12 35.4611 110.178L35.0437 109.878ZM49.5198 115.334C48.8509 116.16 47.8475 116.572 46.5096 116.572C45.2205 116.572 44.2122 116.155 43.4847 115.32C42.7864 114.514 42.4373 113.45 42.4373 112.126C42.4373 110.764 42.8255 109.639 43.6019 108.75C44.3733 107.871 45.3621 107.432 46.5682 107.432C47.491 107.432 48.2112 107.627 48.7288 108.018C49.222 108.384 49.4686 108.887 49.4686 109.526C49.4686 110.352 49.0682 111.047 48.2674 111.614C47.3348 112.273 45.9236 112.61 44.034 112.625C44.2049 114.622 45.1082 115.62 46.7439 115.62C47.7693 115.62 48.5555 115.386 49.1023 114.917L49.5198 115.334ZM44.012 111.841C45.7503 111.807 46.9271 111.394 47.5423 110.603C47.7669 110.31 47.8792 109.946 47.8792 109.512C47.8792 108.945 47.6351 108.555 47.1468 108.34C46.9563 108.257 46.7195 108.215 46.4363 108.215C46.1531 108.215 45.9017 108.267 45.6819 108.369C45.4622 108.467 45.2645 108.604 45.0887 108.779C44.9129 108.95 44.7591 109.153 44.6272 109.387C44.4954 109.617 44.3855 109.866 44.2977 110.134C44.117 110.686 44.0218 111.255 44.012 111.841ZM72.1147 116.001C71.3433 116.411 70.4668 116.616 69.4854 116.616C67.7568 116.616 66.4067 116.023 65.4351 114.836C64.5562 113.757 64.1167 112.441 64.1167 110.889C64.1167 109.331 64.561 108.003 65.4497 106.904C66.436 105.679 67.7812 105.066 69.4854 105.066C71.1895 105.066 72.5347 105.679 73.521 106.904C74.4097 108.003 74.854 109.331 74.854 110.889C74.854 111.685 74.7246 112.449 74.4658 113.181C74.2119 113.909 73.8262 114.546 73.3086 115.093L76.1138 118.74L75.6743 119.121L72.1147 116.001ZM65.8672 110.53C65.8672 111.169 65.8892 111.692 65.9331 112.097C65.9771 112.498 66.0503 112.883 66.1528 113.254C66.2603 113.621 66.4019 113.965 66.5776 114.287C66.7534 114.604 66.9756 114.883 67.2441 115.122C67.8154 115.625 68.5649 115.876 69.4927 115.876C71.2114 115.876 72.3247 115.005 72.8325 113.262C73.0278 112.588 73.1255 111.797 73.1255 110.889C73.1255 108.252 72.3442 106.643 70.7817 106.062C70.4106 105.925 69.981 105.857 69.4927 105.857C67.769 105.857 66.6558 106.748 66.1528 108.53C65.9624 109.219 65.8672 109.885 65.8672 110.53ZM84.6134 116.807C83.6856 116.25 83.0021 115.732 82.5626 115.254C81.7911 114.409 81.3272 113.184 81.171 111.577C81.1124 111.001 81.0831 110.464 81.0831 109.966C81.0831 109.463 81.0782 109.128 81.0685 108.962C81.0587 108.792 81.0196 108.655 80.9513 108.552C80.8341 108.367 80.5362 108.252 80.0577 108.208V107.578H83.6612V108.208C83.1778 108.257 82.8653 108.364 82.7237 108.53C82.6114 108.672 82.5553 109.014 82.5553 109.556C82.5553 110.098 82.5626 110.603 82.5772 111.072C82.5968 111.541 82.631 111.96 82.6798 112.332C82.7286 112.703 82.7994 113.037 82.8922 113.335C82.985 113.628 83.1095 113.906 83.2657 114.17C83.5489 114.658 83.9981 115.19 84.6134 115.767C85.2433 115.176 85.6632 114.697 85.8731 114.331C86.088 113.96 86.2418 113.628 86.3346 113.335C86.4273 113.037 86.4981 112.703 86.547 112.332C86.63 111.702 86.6715 111.008 86.6715 110.251C86.6715 109.49 86.6617 109.036 86.6422 108.889C86.6227 108.743 86.5763 108.623 86.503 108.53C86.3614 108.364 86.0514 108.257 85.5729 108.208V107.578H89.1617V108.208C88.6832 108.276 88.4024 108.374 88.3194 108.501C88.2364 108.623 88.1852 108.767 88.1656 108.933C88.151 109.099 88.1437 109.438 88.1437 109.951C88.1437 110.459 88.1144 111.001 88.0558 111.577C88.0021 112.153 87.9142 112.666 87.7921 113.115C87.6749 113.564 87.5235 113.962 87.338 114.309C87.1524 114.651 86.9278 114.966 86.6642 115.254C86.2247 115.732 85.5411 116.25 84.6134 116.807ZM96.7751 108.94C96.6921 109.092 96.6506 109.268 96.6506 109.468C96.6506 109.663 96.7434 109.9 96.9289 110.178L96.4309 110.479C95.8547 110.381 95.4372 110.139 95.1784 109.753C95.0856 109.622 95.0393 109.451 95.0393 109.241C95.0393 109.031 95.1247 108.813 95.2956 108.589C95.4665 108.359 95.7058 108.159 96.0134 107.988C96.6872 107.617 97.5368 107.432 98.5622 107.432C100.232 107.432 101.27 107.915 101.675 108.882C101.802 109.185 101.865 109.519 101.865 109.885V114.478C101.865 115.044 101.919 115.386 102.027 115.503C102.134 115.615 102.263 115.688 102.415 115.723C102.571 115.757 102.779 115.786 103.037 115.811V116.426H101.221C100.86 116.426 100.447 116.445 99.9831 116.484C99.031 116.572 98.2985 116.616 97.7858 116.616C97.2731 116.616 96.8215 116.548 96.4309 116.411C96.0402 116.274 95.7204 116.094 95.4714 115.869C94.988 115.435 94.7463 114.88 94.7463 114.207C94.7463 113.479 95.1687 112.808 96.0134 112.192C97.029 111.44 98.4865 111.045 100.386 111.006V109.724C100.386 108.708 99.7097 108.201 98.3571 108.201C97.5856 108.201 97.0583 108.447 96.7751 108.94ZM100.386 111.768H100.401L100.386 111.76V111.768ZM100.386 111.768C97.7443 111.924 96.4235 112.737 96.4235 114.207C96.4235 114.983 96.8166 115.483 97.6027 115.708C97.8469 115.781 98.1521 115.818 98.5183 115.818C98.8845 115.818 99.1945 115.798 99.4484 115.759C99.7072 115.715 99.905 115.64 100.042 115.532C100.183 115.425 100.276 115.278 100.32 115.093C100.364 114.902 100.386 114.658 100.386 114.36V111.768ZM113.5 110.237C113.773 109.973 113.91 109.573 113.91 109.036C113.91 108.772 113.785 108.564 113.536 108.413C113.326 108.291 113.007 108.23 112.577 108.23C111.649 108.23 111.185 108.533 111.185 109.138V114.705C111.185 114.915 111.205 115.088 111.244 115.225C111.288 115.361 111.383 115.471 111.53 115.554C111.783 115.701 112.369 115.789 113.287 115.818V116.426H108.395V115.825L108.409 115.818C108.986 115.759 109.33 115.679 109.442 115.576C109.559 115.469 109.63 115.347 109.655 115.21C109.684 115.068 109.699 114.88 109.699 114.646V109.57C109.699 109.038 109.645 108.708 109.537 108.582C109.435 108.455 109.308 108.367 109.157 108.318C109.005 108.269 108.805 108.23 108.556 108.201V107.578H110.072C110.673 107.578 111.1 107.566 111.354 107.542C111.608 107.517 111.808 107.5 111.954 107.49C112.394 107.451 112.75 107.432 113.024 107.432C113.302 107.432 113.588 107.454 113.881 107.498C114.174 107.542 114.432 107.617 114.657 107.725C115.15 107.959 115.397 108.323 115.397 108.816C115.397 109.211 115.236 109.58 114.913 109.922C114.611 110.244 114.274 110.457 113.903 110.559L113.5 110.237ZM121.194 115.818C121.413 115.769 121.587 115.728 121.714 115.693C121.846 115.654 121.943 115.591 122.007 115.503C122.114 115.361 122.168 114.995 122.168 114.404V108.472H120.915V107.798C121.628 107.695 122.038 107.59 122.146 107.483H122.139C122.246 107.336 122.341 107.009 122.424 106.501C122.507 105.994 122.558 105.62 122.578 105.381L123.64 104.941V107.578H126.291V108.472H123.64V114.382C123.64 114.836 123.672 115.127 123.735 115.254C123.804 115.376 123.887 115.466 123.984 115.525C124.082 115.583 124.214 115.627 124.38 115.657C124.648 115.706 125.139 115.735 125.852 115.745V116.426H121.194V115.818ZM137.567 116.799C137.528 116.55 137.352 116.426 137.04 116.426H131.166L131.004 115.964L136.454 108.472H133.795C133.214 108.472 132.782 108.623 132.499 108.926C132.362 109.067 132.245 109.241 132.147 109.446L131.847 110.134H131.122L131.883 107.205H132.579C132.628 107.454 132.828 107.578 133.18 107.578H138.343L138.504 108.04L133.128 115.525H135.853C136.561 115.525 137.059 115.396 137.347 115.137C137.567 114.941 137.774 114.531 137.97 113.906H138.68L138.285 116.799H137.567Z" fill="#313131"/>
<path d="M72.1391 6.42383L70.2963 6.78477L45.1353 32.7001L44.2139 34.8657L44.4265 61.1419L45.0644 63.0188L68.0283 84.675L69.8002 83.9532L95.2447 63.5963L95.103 62.3691L97.2293 37.3201L97.4419 35.2266L72.1391 6.42383Z" fill="white"/>
<path d="M70.2377 6.71979L69.3744 43.2311L45.0505 32.7152L70.2377 6.71979Z" fill="#FFB1B1"/>
<path d="M71.4142 47.7866L44.3144 61.2189L44.0884 34.8381L71.4142 47.7866Z" fill="#313131"/>
<path d="M73.9567 47.8368L97.2867 37.2101L95.1205 62.4282L73.9567 47.8368Z" fill="#FFB1B1"/>
<path d="M72.113 6.35471L97.5359 35.2301L73.5194 45.1129L72.113 6.35471Z" fill="#313131"/>
<path d="M67.9969 84.7729L44.9201 62.9708L69.1784 52.7368L67.9969 84.7729Z" fill="#FFB1B1"/>
<path d="M69.7033 84.1199L72.0681 50.9905L95.3474 63.5974L69.7033 84.1199Z" fill="#313131"/>
<path d="M70.8632 30.3896L72.8631 44.8466L87.3065 46.8484L72.8631 48.8501L70.8632 63.3071L68.8633 48.8501L54.4199 46.8484L68.8633 44.8466L70.8632 30.3896Z" fill="white"/>
<path d="M75.5148 17.2885L77.9684 20.4442L81.7048 18.8597L78.5151 21.3971L80.0098 25.1236L77.5561 21.9678L73.8197 23.5523L77.0094 21.0149L75.5148 17.2885Z" fill="white"/>
<path d="M87.448 61.3254L85.3205 64.0865L87.4 66.9905L84.6385 64.7526L81.8407 66.8018L83.9682 64.0406L81.8887 61.1366L84.6502 63.3746L87.448 61.3254Z" fill="white"/>
<path d="M50.4084 50.7677L49.398 53.4312L51.694 55.1866L49.023 54.1145L47.3249 56.3865L48.3353 53.723L46.0393 51.9676L48.7103 53.0397L50.4084 50.7677Z" fill="white"/>
</svg>
