<svg width="285" height="56" viewBox="0 0 285 56" fill="none" xmlns="http://www.w3.org/2000/svg">
<path d="M24.6371 3.56104L23.4146 3.7836L6.72341 19.7636L6.11218 21.099L6.25324 37.3016L6.67639 38.4589L21.9101 51.8127L23.0855 51.3676L39.9648 38.815L39.8707 38.0583L41.2813 22.6124L41.4223 21.3216L24.6371 3.56104Z" fill="white"/>
<path d="M23.3755 3.74375L22.8028 26.2575L6.66691 19.7732L23.3755 3.74375Z" fill="#FFB1B1"/>
<path d="M24.1563 29.0661L6.17895 37.3488L6.029 21.0817L24.1563 29.0661Z" fill="#313131"/>
<path d="M25.8432 29.0978L41.3198 22.5452L39.8827 38.0953L25.8432 29.0978Z" fill="#FFB1B1"/>
<path d="M24.6201 3.51826L41.485 21.3235L25.5531 27.4175L24.6201 3.51826Z" fill="#313131"/>
<path d="M21.8891 51.8729L6.58053 38.4292L22.6729 32.1187L21.8891 51.8729Z" fill="#FFB1B1"/>
<path d="M23.0214 51.4708L24.5902 31.0425L40.0331 38.8161L23.0214 51.4708Z" fill="#313131"/>
<path d="M23.7907 18.3394L25.1174 27.2539L34.6988 28.4882L25.1174 29.7226L23.7907 38.6371L22.4641 29.7226L12.8827 28.4882L22.4641 27.2539L23.7907 18.3394Z" fill="white"/>
<path d="M26.876 10.2603L28.5037 12.2062L30.9823 11.2291L28.8663 12.7937L29.8578 15.0916L28.2302 13.1457L25.7515 14.1227L27.8675 12.5581L26.876 10.2603Z" fill="white"/>
<path d="M34.7928 37.4147L33.3814 39.1173L34.7609 40.9079L32.929 39.528L31.073 40.7916L32.4843 39.089L31.1048 37.2983L32.9367 38.6783L34.7928 37.4147Z" fill="white"/>
<path d="M10.2212 30.9051L9.55092 32.5474L11.074 33.6298L9.30215 32.9688L8.17569 34.3697L8.84592 32.7274L7.32285 31.6449L9.0947 32.306L10.2212 30.9051Z" fill="white"/>
<path d="M77.6406 25.5371C77.6406 22.9199 76.3672 21.6113 73.8203 21.6113C71.9297 21.6113 70.875 22.1113 70.6562 23.1113C70.5938 23.4004 70.5625 23.7051 70.5625 24.0254V35.416C70.5625 35.877 70.5859 36.2324 70.6328 36.4824C70.6797 36.7324 70.7812 36.9238 70.9375 37.0566C71.0938 37.1895 71.3203 37.2832 71.6172 37.3379C71.9219 37.3848 72.3281 37.4355 72.8359 37.4902L73.4688 37.5605V38.5332H66.1562V37.5605L66.5547 37.502C66.8984 37.4551 67.1758 37.4082 67.3867 37.3613C67.5977 37.3066 67.7617 37.209 67.8789 37.0684C68.082 36.834 68.1836 36.2832 68.1836 35.416V23.5566C68.1836 22.791 68.0938 22.3184 67.9141 22.1387C67.7422 21.959 67.5195 21.834 67.2461 21.7637C66.9805 21.6934 66.6172 21.6387 66.1562 21.5996V20.5918H69.2031C69.6484 20.5918 70.2383 20.5605 70.9727 20.498C72.3945 20.3887 73.5039 20.334 74.3008 20.334C75.1055 20.334 75.9141 20.4668 76.7266 20.7324C77.5469 20.998 78.2227 21.3613 78.7539 21.8223C79.7852 22.7285 80.3008 23.9238 80.3008 25.4082C80.3008 26.5254 79.9648 27.5645 79.293 28.5254C78.5352 29.627 77.418 30.4199 75.9414 30.9043L83.9219 41.8496L83.043 42.5176L72.7891 31.0215L73.3047 29.9785H74.1953C75.125 29.9785 75.9102 29.6152 76.5508 28.8887C77.2773 28.0449 77.6406 26.9277 77.6406 25.5371ZM90.4844 31.373C90.4844 30.7637 90.543 30.1582 90.6602 29.5566C90.7852 28.9551 90.9688 28.3848 91.2109 27.8457C91.4609 27.3066 91.7695 26.8105 92.1367 26.3574C92.5039 25.9043 92.9297 25.5137 93.4141 25.1855C94.4531 24.4824 95.6602 24.1309 97.0352 24.1309C99.1133 24.1309 100.754 24.873 101.957 26.3574C103.059 27.7168 103.609 29.3926 103.609 31.3848C103.609 33.3926 103.059 35.0996 101.957 36.5059C100.754 38.0371 99.1133 38.8027 97.0352 38.8027C94.9648 38.8027 93.3242 38.0254 92.1133 36.4707C91.0273 35.0645 90.4844 33.3652 90.4844 31.373ZM95.6641 37.2441C96.0625 37.416 96.5234 37.502 97.0469 37.502C97.5781 37.502 98.043 37.4199 98.4414 37.2559C98.8398 37.084 99.1836 36.8496 99.4727 36.5527C99.7617 36.2559 100 35.9121 100.188 35.5215C100.383 35.123 100.539 34.6973 100.656 34.2441C100.867 33.4316 100.973 32.6309 100.973 31.8418C100.973 31.0449 100.949 30.4043 100.902 29.9199C100.855 29.4277 100.773 28.9629 100.656 28.5254C100.539 28.0801 100.383 27.666 100.188 27.2832C100 26.9004 99.7617 26.5684 99.4727 26.2871C98.8477 25.6934 98.043 25.3965 97.0586 25.3965C95.207 25.3965 94.0117 26.459 93.4727 28.584C93.2617 29.3887 93.1562 30.3223 93.1562 31.3848C93.1562 34.5723 93.9922 36.5254 95.6641 37.2441ZM120.59 28.0449C120.887 27.584 121.035 27.1699 121.035 26.8027C121.035 26.4277 120.812 26.0996 120.367 25.8184C119.93 25.5293 119.406 25.3848 118.797 25.3848C118.188 25.3848 117.719 25.4395 117.391 25.5488C117.062 25.6582 116.785 25.8105 116.559 26.0059C116.113 26.3887 115.891 26.9004 115.891 27.541C115.891 28.3145 116.539 29.0293 117.836 29.6855C118.211 29.8809 118.527 30.0371 118.785 30.1543C120.762 31.0449 122.016 31.7051 122.547 32.1348C123.078 32.5566 123.461 32.9629 123.695 33.3535C123.938 33.7441 124.059 34.2285 124.059 34.8066C124.059 35.3848 123.898 35.9277 123.578 36.4355C123.258 36.9434 122.832 37.373 122.301 37.7246C121.223 38.4434 119.926 38.8027 118.41 38.8027C116.996 38.8027 115.762 38.5137 114.707 37.9355C113.551 37.3184 112.988 36.5332 113.02 35.5801C113.035 35.0176 113.277 34.5137 113.746 34.0684C114.168 33.6699 114.672 33.4043 115.258 33.2715L115.773 33.8691C115.477 34.2363 115.328 34.7285 115.328 35.3457C115.328 35.8848 115.609 36.3652 116.172 36.7871C116.797 37.2637 117.594 37.502 118.562 37.502C119.539 37.502 120.305 37.2832 120.859 36.8457C121.422 36.4082 121.703 35.8223 121.703 35.0879C121.703 34.2285 120.984 33.4707 119.547 32.8145C119.117 32.6191 118.766 32.4668 118.492 32.3574C118.219 32.2402 118.047 32.166 117.977 32.1348C117.906 32.1035 117.711 32.0176 117.391 31.877C117.078 31.7285 116.668 31.5098 116.16 31.2207C115.66 30.9316 115.219 30.6152 114.836 30.2715C114.016 29.5449 113.605 28.7246 113.605 27.8105C113.605 26.6777 114.105 25.7715 115.105 25.0918C116.059 24.4512 117.324 24.1309 118.902 24.1309C120.121 24.1309 121.125 24.373 121.914 24.8574C122.711 25.3418 123.109 25.9434 123.109 26.6621C123.109 27.1152 122.895 27.5293 122.465 27.9043C122.09 28.2246 121.688 28.4316 121.258 28.5254L120.59 28.0449ZM143.512 36.7754C142.441 38.0957 140.836 38.7559 138.695 38.7559C136.633 38.7559 135.02 38.0879 133.855 36.752C132.738 35.4629 132.18 33.7598 132.18 31.6426C132.18 29.4629 132.801 27.6621 134.043 26.2402C135.277 24.834 136.859 24.1309 138.789 24.1309C140.266 24.1309 141.418 24.4434 142.246 25.0684C143.035 25.6543 143.43 26.459 143.43 27.4824C143.43 28.8027 142.789 29.916 141.508 30.8223C140.016 31.877 137.758 32.416 134.734 32.4395C135.008 35.6348 136.453 37.2324 139.07 37.2324C140.711 37.2324 141.969 36.8574 142.844 36.1074L143.512 36.7754ZM134.699 31.1855C137.48 31.1309 139.363 30.4707 140.348 29.2051C140.707 28.7363 140.887 28.1543 140.887 27.459C140.887 26.5527 140.496 25.9277 139.715 25.584C139.41 25.4512 139.031 25.3848 138.578 25.3848C138.125 25.3848 137.723 25.4668 137.371 25.6309C137.02 25.7871 136.703 26.0059 136.422 26.2871C136.141 26.5605 135.895 26.8848 135.684 27.2598C135.473 27.627 135.297 28.0254 135.156 28.4551C134.867 29.3379 134.715 30.248 134.699 31.1855ZM179.184 37.8418C177.949 38.498 176.547 38.8262 174.977 38.8262C172.211 38.8262 170.051 37.877 168.496 35.9785C167.09 34.252 166.387 32.1465 166.387 29.6621C166.387 27.1699 167.098 25.0449 168.52 23.2871C170.098 21.3262 172.25 20.3457 174.977 20.3457C177.703 20.3457 179.855 21.3262 181.434 23.2871C182.855 25.0449 183.566 27.1699 183.566 29.6621C183.566 30.9355 183.359 32.1582 182.945 33.3301C182.539 34.4941 181.922 35.5137 181.094 36.3887L185.582 42.2246L184.879 42.834L179.184 37.8418ZM169.188 29.0879C169.188 30.1113 169.223 30.9473 169.293 31.5957C169.363 32.2363 169.48 32.8535 169.645 33.4473C169.816 34.0332 170.043 34.584 170.324 35.0996C170.605 35.6074 170.961 36.0527 171.391 36.4355C172.305 37.2402 173.504 37.6426 174.988 37.6426C177.738 37.6426 179.52 36.248 180.332 33.459C180.645 32.3809 180.801 31.1152 180.801 29.6621C180.801 25.4434 179.551 22.8691 177.051 21.9395C176.457 21.7207 175.77 21.6113 174.988 21.6113C172.23 21.6113 170.449 23.0371 169.645 25.8887C169.34 26.9902 169.188 28.0566 169.188 29.0879ZM198.941 39.1309C197.457 38.2402 196.363 37.4121 195.66 36.6465C194.426 35.2949 193.684 33.334 193.434 30.7637C193.34 29.8418 193.293 28.9824 193.293 28.1855C193.293 27.3809 193.285 26.8457 193.27 26.5801C193.254 26.3066 193.191 26.0879 193.082 25.9238C192.895 25.627 192.418 25.4434 191.652 25.373V24.3652H197.418V25.373C196.645 25.4512 196.145 25.623 195.918 25.8887C195.738 26.1152 195.648 26.6621 195.648 27.5293C195.648 28.3965 195.66 29.2051 195.684 29.9551C195.715 30.7051 195.77 31.377 195.848 31.9707C195.926 32.5645 196.039 33.0996 196.188 33.5762C196.336 34.0449 196.535 34.4902 196.785 34.9121C197.238 35.6934 197.957 36.5449 198.941 37.4668C199.949 36.5215 200.621 35.7559 200.957 35.1699C201.301 34.5762 201.547 34.0449 201.695 33.5762C201.844 33.0996 201.957 32.5645 202.035 31.9707C202.168 30.9629 202.234 29.8535 202.234 28.6426C202.234 27.4238 202.219 26.6973 202.188 26.4629C202.156 26.2285 202.082 26.0371 201.965 25.8887C201.738 25.623 201.242 25.4512 200.477 25.373V24.3652H206.219V25.373C205.453 25.4824 205.004 25.6387 204.871 25.8418C204.738 26.0371 204.656 26.2676 204.625 26.5332C204.602 26.7988 204.59 27.3418 204.59 28.1621C204.59 28.9746 204.543 29.8418 204.449 30.7637C204.363 31.6855 204.223 32.5059 204.027 33.2246C203.84 33.9434 203.598 34.5801 203.301 35.1348C203.004 35.6816 202.645 36.1855 202.223 36.6465C201.52 37.4121 200.426 38.2402 198.941 39.1309ZM218.16 26.5449C218.027 26.7871 217.961 27.0684 217.961 27.3887C217.961 27.7012 218.109 28.0801 218.406 28.5254L217.609 29.0059C216.688 28.8496 216.02 28.4629 215.605 27.8457C215.457 27.6348 215.383 27.3613 215.383 27.0254C215.383 26.6895 215.52 26.3418 215.793 25.9824C216.066 25.6152 216.449 25.2949 216.941 25.0215C218.02 24.4277 219.379 24.1309 221.02 24.1309C223.691 24.1309 225.352 24.9043 226 26.4512C226.203 26.9355 226.305 27.4707 226.305 28.0566V35.4043C226.305 36.3105 226.391 36.8574 226.562 37.0449C226.734 37.2246 226.941 37.3418 227.184 37.3965C227.434 37.4512 227.766 37.498 228.18 37.5371V38.5215H225.273C224.695 38.5215 224.035 38.5527 223.293 38.6152C221.77 38.7559 220.598 38.8262 219.777 38.8262C218.957 38.8262 218.234 38.7168 217.609 38.498C216.984 38.2793 216.473 37.9902 216.074 37.6309C215.301 36.9355 214.914 36.0488 214.914 34.9707C214.914 33.8066 215.59 32.7324 216.941 31.748C218.566 30.5449 220.898 29.9121 223.938 29.8496V27.7988C223.938 26.1738 222.855 25.3613 220.691 25.3613C219.457 25.3613 218.613 25.7559 218.16 26.5449ZM223.938 31.0684H223.961L223.938 31.0566V31.0684ZM223.938 31.0684C219.711 31.3184 217.598 32.6191 217.598 34.9707C217.598 36.2129 218.227 37.0137 219.484 37.373C219.875 37.4902 220.363 37.5488 220.949 37.5488C221.535 37.5488 222.031 37.5176 222.438 37.4551C222.852 37.3848 223.168 37.2637 223.387 37.0918C223.613 36.9199 223.762 36.6855 223.832 36.3887C223.902 36.084 223.938 35.6934 223.938 35.2168V31.0684ZM244.68 28.6191C245.117 28.1973 245.336 27.5566 245.336 26.6973C245.336 26.2754 245.137 25.9434 244.738 25.7012C244.402 25.5059 243.891 25.4082 243.203 25.4082C241.719 25.4082 240.977 25.8926 240.977 26.8613V35.7676C240.977 36.1035 241.008 36.3809 241.07 36.5996C241.141 36.8184 241.293 36.9941 241.527 37.127C241.934 37.3613 242.871 37.502 244.34 37.5488V38.5215H236.512V37.5605L236.535 37.5488C237.457 37.4551 238.008 37.3262 238.188 37.1621C238.375 36.9902 238.488 36.7949 238.527 36.5762C238.574 36.3496 238.598 36.0488 238.598 35.6738V27.5527C238.598 26.7012 238.512 26.1738 238.34 25.9707C238.176 25.7676 237.973 25.627 237.73 25.5488C237.488 25.4707 237.168 25.4082 236.77 25.3613V24.3652H239.195C240.156 24.3652 240.84 24.3457 241.246 24.3066C241.652 24.2676 241.973 24.2402 242.207 24.2246C242.91 24.1621 243.48 24.1309 243.918 24.1309C244.363 24.1309 244.82 24.166 245.289 24.2363C245.758 24.3066 246.172 24.4277 246.531 24.5996C247.32 24.9746 247.715 25.5566 247.715 26.3457C247.715 26.9785 247.457 27.5684 246.941 28.1152C246.457 28.6309 245.918 28.9707 245.324 29.1348L244.68 28.6191ZM256.75 37.5488C257.102 37.4707 257.379 37.4043 257.582 37.3496C257.793 37.2871 257.949 37.1855 258.051 37.0449C258.223 36.8184 258.309 36.2324 258.309 35.2871V25.7949H256.305V24.7168C257.445 24.5527 258.102 24.3848 258.273 24.2129H258.262C258.434 23.9785 258.586 23.4551 258.719 22.6426C258.852 21.8301 258.934 21.2324 258.965 20.8496L260.664 20.1465V24.3652H264.906V25.7949H260.664V35.252C260.664 35.9785 260.715 36.4434 260.816 36.6465C260.926 36.8418 261.059 36.9863 261.215 37.0801C261.371 37.1738 261.582 37.2441 261.848 37.291C262.277 37.3691 263.062 37.416 264.203 37.4316V38.5215H256.75V37.5488ZM282.707 39.1191C282.645 38.7207 282.363 38.5215 281.863 38.5215H272.465L272.207 37.7832L280.926 25.7949H276.672C275.742 25.7949 275.051 26.0371 274.598 26.5215C274.379 26.748 274.191 27.0254 274.035 27.3535L273.555 28.4551H272.395L273.613 23.7676H274.727C274.805 24.166 275.125 24.3652 275.688 24.3652H283.949L284.207 25.1035L275.605 37.0801H279.965C281.098 37.0801 281.895 36.873 282.355 36.459C282.707 36.1465 283.039 35.4902 283.352 34.4902H284.488L283.855 39.1191H282.707Z" fill="black"/>
</svg>
